<svg width="60" viewBox="0 0 65 35" fill="none" xmlns="http://www.w3.org/2000/svg">
    <path
        d="M49.5969 12.597C51.0826 12.597 52.2869 11.3927 52.2869 9.90702C52.2869 8.42137 51.0826 7.21702 49.5969 7.21702C48.1113 7.21702 46.9069 8.42137 46.9069 9.90702C46.9069 11.3927 48.1113 12.597 49.5969 12.597Z"
        fill="currentColor"></path>
    <path
        d="M63.0869 12.507C62.6173 12.3186 62.0922 12.3232 61.6259 12.5198C61.1596 12.7164 60.7898 13.0892 60.5969 13.557C59.4169 16.477 54.5969 21.247 50.7969 22.447C50.4483 22.6065 50.0712 22.694 49.688 22.7043C49.3049 22.7146 48.9235 22.6475 48.5669 22.507C47.6869 21.937 47.8469 18.947 48.5669 16.647C48.7103 16.2278 48.7026 15.7716 48.5453 15.3575C48.3879 14.9433 48.0908 14.5971 47.7052 14.3788C47.3197 14.1605 46.8699 14.0838 46.4338 14.162C45.9977 14.2402 45.6026 14.4684 45.3169 14.807C40.4269 20.387 36.0269 24.417 33.8669 25.807C33.8669 25.217 33.8669 24.517 33.9369 24.007C34.0769 21.617 34.1869 19.557 32.6569 18.567C32.239 18.3095 31.7578 18.1732 31.2669 18.1732C30.7761 18.1732 30.2948 18.3095 29.8769 18.567C27.0169 20.037 22.2569 24.687 18.7569 28.097C18.9769 27.097 19.2369 26.037 19.5069 25.017C20.2187 22.189 21.1585 19.4233 22.3169 16.747C25.0369 10.187 28.4069 4.99701 30.7769 3.93701C30.9213 3.86842 31.0774 3.82771 31.2369 3.81702C31.3163 3.8131 31.3944 3.83797 31.4569 3.88703C31.7069 4.04703 31.7169 4.14703 31.7269 4.23703C31.8869 5.88703 28.7269 9.83703 25.0369 13.857C23.5566 16.8773 22.3097 20.0064 21.3069 23.217C32.4869 11.967 35.8569 7.31704 35.5169 3.86704C35.4584 3.22657 35.253 2.60821 34.9165 2.06012C34.58 1.51204 34.1216 1.04901 33.5769 0.707034C32.9356 0.292227 32.1975 0.0510895 31.4349 0.00726544C30.6724 -0.0365587 29.9115 0.118434 29.2269 0.457034C24.3969 2.60703 19.0269 13.017 16.1169 22.987C13.6769 25.237 11.2369 26.347 8.85691 26.307C6.75251 26.1982 4.76064 25.3232 3.2569 23.847C2.90924 23.5012 2.4419 23.3024 1.95167 23.2917C1.46144 23.281 0.985871 23.4593 0.623451 23.7896C0.261032 24.1198 0.039526 24.5769 0.00479886 25.066C-0.0299283 25.5551 0.12481 26.0388 0.436928 26.417C2.62956 28.6533 5.58827 29.9754 8.71693 30.117C10.258 30.1465 11.79 29.8747 13.2269 29.317C13.5769 27.987 13.7969 27.227 13.8069 27.207C13.856 27.0466 13.9668 26.9122 14.1149 26.8334C14.1883 26.7944 14.2686 26.7702 14.3513 26.7623C14.434 26.7543 14.5175 26.7627 14.5969 26.787C14.6764 26.8113 14.7503 26.851 14.8144 26.9039C14.8785 26.9567 14.9315 27.0217 14.9705 27.095C15.0095 27.1684 15.0337 27.2487 15.0417 27.3314C15.0496 27.4141 15.0412 27.4976 15.0169 27.577C15.0169 27.577 14.9069 27.967 14.7169 28.647C14.5869 29.317 14.4769 29.987 14.3769 30.647C13.9269 32.997 14.3769 33.647 14.6669 33.977C14.8599 34.235 15.1105 34.4444 15.3987 34.5885C15.6869 34.7326 16.0047 34.8074 16.3269 34.807C17.3269 34.807 17.7269 34.437 21.3269 30.927C24.1078 28.0937 27.0493 25.4226 30.1369 22.927L30.8769 22.327C31.0092 22.2222 31.1772 22.173 31.3451 22.1898C31.5131 22.2066 31.668 22.2881 31.7769 22.417C31.8782 22.5515 31.9242 22.7196 31.9056 22.8869C31.887 23.0542 31.8052 23.208 31.6769 23.317C31.2069 23.687 30.6769 24.157 30.0469 24.667C29.9569 26.667 29.9969 28.477 31.1969 29.517C31.5137 29.7911 31.8908 29.9866 32.2974 30.0873C32.7041 30.1881 33.1287 30.1914 33.5369 30.097C35.4369 29.717 38.3769 27.347 41.1669 24.697C41.1669 24.697 44.2269 21.497 45.0969 20.467C45.2056 20.3344 45.3626 20.2504 45.5333 20.2336C45.7039 20.2167 45.8743 20.2683 46.0069 20.377C46.1395 20.4858 46.2235 20.6427 46.2404 20.8134C46.2573 20.984 46.2056 21.1544 46.0969 21.287C45.7669 21.677 45.1469 22.357 44.4969 23.057C44.8117 24.1788 45.5222 25.1487 46.4969 25.787C47.3145 26.2574 48.2289 26.5345 49.1701 26.5969C50.1114 26.6593 51.0544 26.5054 51.9269 26.147C56.9269 24.567 62.5469 18.897 64.1069 15.067C64.212 14.8325 64.2689 14.5793 64.2743 14.3223C64.2797 14.0654 64.2335 13.81 64.1384 13.5713C64.0433 13.3326 63.9012 13.1153 63.7206 12.9325C63.54 12.7497 63.3245 12.605 63.0869 12.507Z"
        fill="currentColor"></path>
</svg>
